M48
; DRILL file {KiCad 7.0.7} date Wed Nov 15 11:04:06 2023
; FORMAT={-:-/ absolute / inch / decimal}
; #@! TF.CreationDate,2023-11-15T11:04:06-08:00
; #@! TF.GenerationSoftware,Kicad,Pcbnew,7.0.7
; #@! TF.FileFunction,Plated,1,2,PTH
FMAT,2
INCH
; #@! TA.AperFunction,Plated,PTH,ViaDrill
T1C0.0071
; #@! TA.AperFunction,Plated,PTH,ViaDrill
T2C0.0141
; #@! TA.AperFunction,Plated,PTH,ViaDrill
T3C0.0157
; #@! TA.AperFunction,Plated,PTH,ComponentDrill
T4C0.0295
; #@! TA.AperFunction,Plated,PTH,ComponentDrill
T5C0.0315
; #@! TA.AperFunction,Plated,PTH,ComponentDrill
T6C0.0394
; #@! TA.AperFunction,Plated,PTH,ComponentDrill
T7C0.0512
; #@! TA.AperFunction,Plated,PTH,ComponentDrill
T8C0.1260
%
G90
G05
T1
X4.236Y-3.486
X4.828Y-4.378
X5.15Y-4.23
X7.18Y-2.624
X7.34Y-3.0
X7.396Y-3.036
X7.484Y-3.122
X7.566Y-3.058
X7.638Y-2.76
X8.166Y-2.978
T2
X4.69Y-3.408
T3
X4.986Y-2.698
X7.26Y-3.34
T4
X3.12Y-3.79
X3.12Y-4.19
T5
X2.7897Y-3.283
X2.794Y-2.968
X2.8881Y-3.283
X2.8924Y-2.968
X3.3Y-4.17
X3.59Y-3.8013
X3.59Y-3.88
X3.7Y-4.17
X3.8494Y-3.8006
X3.8494Y-3.9006
X3.8494Y-4.0006
X3.8494Y-4.1006
X3.8494Y-4.2006
X3.8494Y-4.3006
X3.8494Y-4.4006
X3.8494Y-4.5006
X4.1494Y-3.8006
X4.1494Y-3.9006
X4.1494Y-4.0006
X4.1494Y-4.1006
X4.1494Y-4.2006
X4.1494Y-4.3006
X4.1494Y-4.4006
X4.1494Y-4.5006
X6.04Y-2.1726
X6.04Y-2.271
T6
X2.794Y-2.6509
X2.894Y-2.6509
X2.9Y-3.82
X2.9Y-3.92
X4.93Y-3.53
X4.93Y-3.63
X5.5585Y-4.4131
X5.5585Y-4.5131
X5.6Y-2.9604
X5.6Y-3.11
X5.6585Y-4.4131
X5.6585Y-4.5131
X5.7585Y-4.4131
X5.7585Y-4.5131
X5.7596Y-4.71
X5.8585Y-4.4131
X5.8585Y-4.5131
X5.8596Y-4.71
X5.9585Y-4.4131
X5.9585Y-4.5131
X5.9596Y-4.71
X6.0585Y-4.4131
X6.0585Y-4.5131
X6.0596Y-4.71
X6.1585Y-4.4131
X6.1585Y-4.5131
X6.2585Y-4.4131
X6.2585Y-4.5131
X6.3585Y-4.4131
X6.3585Y-4.5131
X6.4585Y-4.4131
X6.4585Y-4.5131
X6.5585Y-4.4131
X6.5585Y-4.5131
X6.6585Y-4.4131
X6.6585Y-4.5131
X6.67Y-4.711
X6.7585Y-4.4131
X6.7585Y-4.5131
X6.77Y-4.711
X6.8585Y-4.4131
X6.8585Y-4.5131
X6.87Y-4.711
X6.9585Y-4.4131
X6.9585Y-4.5131
X6.97Y-4.711
X7.0585Y-4.4131
X7.0585Y-4.5131
X7.1585Y-4.4131
X7.1585Y-4.5131
X7.2585Y-4.4131
X7.2585Y-4.5131
X7.3585Y-4.4131
X7.3585Y-4.5131
X7.4585Y-4.4131
X7.4585Y-4.5131
X7.9281Y-2.34
X8.125Y-2.34
T7
X3.338Y-2.6862
X3.338Y-3.1783
T8
X2.255Y-2.465
X2.255Y-3.155
X2.255Y-3.85
X2.255Y-4.535
X3.564Y-4.536
X3.72Y-2.464
X4.98Y-3.98
X6.65Y-3.1
X6.776Y-2.468
X8.09Y-4.54
X9.325Y-2.465
X9.325Y-3.155
X9.325Y-3.85
X9.325Y-4.535
T0
M30
